<svg id="Layer_1" enable-background="new 0 0 512 512" height="512" viewBox="0 0 512 512" width="512" xmlns="http://www.w3.org/2000/svg"><g><path d="m208.867 497c0 8.284 6.716 15 15 15h64.267c8.284 0 15-6.716 15-15v-131.733h-94.267z"/><path d="m135.5 174.6h-25.167v50.333h25.167c13.877 0 25.167-11.29 25.167-25.167s-11.29-25.166-25.167-25.166z"/><path d="m144.6 127.467c0-9.447-7.686-17.133-17.133-17.133h-17.133v34.266h17.133c9.447 0 17.133-7.686 17.133-17.133z"/><path d="m497 0h-482c-8.284 0-15 6.716-15 15v305.267c0 8.284 6.716 15 15 15h482c8.284 0 15-6.716 15-15v-305.267c0-8.284-6.716-15-15-15zm-361.5 254.933h-40.167c-8.284 0-15-6.716-15-15v-144.6c0-8.284 6.716-15 15-15h32.133c25.989 0 47.133 21.144 47.133 47.133 0 9.859-3.042 19.02-8.238 26.595 14.655 9.927 24.304 26.71 24.304 45.705.002 30.42-24.746 55.167-55.165 55.167zm136.566 0h-40.166c-8.284 0-15-6.716-15-15v-144.6c0-8.284 6.716-15 15-15s15 6.716 15 15v129.6h25.167c8.284 0 15 6.716 15 15s-6.716 15-15.001 15zm159.601-15c0 8.284-6.716 15-15 15s-15-6.716-15-15v-99.6l-21.2 28.267c-2.833 3.777-7.278 6-12 6s-9.167-2.223-12-6l-21.2-28.267v99.6c0 8.284-6.716 15-15 15s-15-6.716-15-15v-144.6c0-6.457 4.132-12.188 10.257-14.23 6.122-2.04 12.869.065 16.743 5.23l36.2 48.267 36.2-48.267c3.875-5.166 10.621-7.269 16.743-5.23 6.125 2.042 10.257 7.774 10.257 14.23z"/></g></svg>