<svg id="Capa_1" enable-background="new 0 0 512.003 512.003" height="512" viewBox="0 0 512.003 512.003" width="512" xmlns="http://www.w3.org/2000/svg"><g id="XMLID_2110_"><g id="XMLID_2085_"><path id="XMLID_927_" d="m348.442 462.005c84.533-45.716 141.955-135.153 141.955-238.002 0-87.082-41.165-164.549-105.098-214.004l-123.755 38.627c41.527 37.2 67.658 91.236 67.658 151.376 0 59.441-25.527 112.921-66.217 150.073z" fill="#c68a65"/></g><g id="XMLID_2082_"><path id="XMLID_926_" d="m197.72 338.502c-35.378 0-68.639 16.86-89.552 45.395l-86.563 118.105h353l-87.611-118.483c-20.936-28.313-54.061-45.017-89.274-45.017z" fill="#ffcd69"/></g><g id="XMLID_2083_"><path id="XMLID_3_" d="m148.646 320.502v-43.953l17.574-6.902 54.327 27.494 42.438 52.935-78.695-10.758z" fill="#ffd0c7"/></g><g id="XMLID_2081_"><path id="XMLID_4_" d="m68.965 191.337-28.785 62.716 28.785 15.595v31.785c0 20.473 16.597 37.07 37.07 37.07h17.616c10.342 0 20.392 3.433 28.572 9.762v-156.928z" fill="#ffd0c7"/></g><g id="XMLID_1973_"><path id="XMLID_925_" d="m166.22 269.647 54.327 27.493c1.446-9.781 2.195-19.789 2.195-29.972 0-54.576-21.519-104.126-56.535-140.627-5.163-5.382-8.139-11.941-9.06-18.682l-1.875 1.064c-30.902 15.411-69.832 42.258-90.297 69.707l61.408 61.276z" fill="#ff7b79"/></g><g id="XMLID_2006_"><path id="XMLID_924_" d="m111.238 135.586c30.167 27.545 51.783 64.298 60.399 105.813l-45.255-1.492-61.408-61.276z" fill="#ffcd69"/></g><g id="XMLID_2004_"><ellipse id="XMLID_923_" cx="148.646" cy="251.64" fill="#ff7b79" rx="25.167" ry="25.167" transform="matrix(.973 -.23 .23 .973 -53.839 40.884)"/></g><g id="XMLID_1931_"><path id="XMLID_283_" d="m221.459 44.923-48.431 29.498c-18.4 11.207-21.737 36.573-6.822 52.12 35.016 36.502 56.535 86.052 56.535 140.627 0 10.183-.749 20.191-2.195 29.972l42.438 52.935c40.69-37.152 66.217-90.632 66.217-150.073 0-60.14-26.131-114.177-67.658-151.376-11.088-9.933-27.369-11.447-40.084-3.703z" fill="#fff"/></g><g id="XMLID_1131_"><path id="XMLID_265_" d="m148.646 423.767c-11.046 0-20-8.954-20-20v-83.265h40v83.265c0 11.046-8.954 20-20 20z" fill="#98eaf9"/></g><g id="XMLID_928_"><path id="XMLID_931_" d="m500.397 224.002c0-44.151-9.972-86.408-29.638-125.597-6.934-13.817-15.062-27.074-24.223-39.6-.307-.504-.658-.973-1.044-1.41-15.393-20.778-33.643-39.498-54.077-55.305-2.621-2.027-6.076-2.626-9.228-1.594l-116.918 38.262c-14.274-10.755-33.512-11.816-49.012-2.375l-48.431 29.498c-11.384 6.934-18.9 18.491-20.622 31.709-.191 1.469-.296 2.935-.34 4.396-28.873 14.983-68.244 41.61-89.907 70.666-2.971 3.984-2.564 9.546.953 13.057l1.807 1.803-28.625 62.368c-2.196 4.786-.305 10.456 4.325 12.965l23.549 12.758v25.83c0 25.954 21.115 47.069 47.069 47.069h12.611v9.403c-6.913 5.966-13.14 12.706-18.545 20.081l-86.561 118.105c-2.228 3.039-2.558 7.071-.854 10.433 1.704 3.36 5.152 5.479 8.92 5.479h353c3.775 0 7.229-2.126 8.929-5.497 1.7-3.372 1.356-7.413-.888-10.448l-21.837-29.532c86.323-50.183 139.587-142.309 139.587-242.524zm-37.207-93.542h-135.697c-4.165-12.052-9.402-23.709-15.646-34.831l121.788-20.74c12.113 17.282 22.024 35.929 29.555 55.571zm-124.288 80.786 141.458 17.075c-.345 20.999-3.207 41.588-8.368 61.405l-136.353-51.028c1.676-9.034 2.771-18.203 3.263-27.452zm.095-20.134c-.578-13.786-2.482-27.396-5.657-40.652h136.587c5.429 18.585 8.806 37.899 9.985 57.662zm-7.983 67.208 135.176 50.588c-10.571 30.672-26.779 59.088-47.763 83.773l-100.335-100.334c5.261-10.945 9.585-22.33 12.922-34.027zm52.297-237.148c13.474 10.851 25.687 22.839 36.551 35.774l-119.559 20.36c-5.638-8.017-11.843-15.667-18.589-22.888zm-216.274 79.002c.935-7.175 5.015-13.448 11.194-17.212l48.431-29.499c9.007-5.485 20.343-4.437 28.209 2.61 40.884 36.623 64.331 89.083 64.331 143.929 0 50.578-20.022 99.289-55.271 135.266l-32.893-41.029c1.132-8.936 1.704-18.023 1.704-27.07 0-9.802-.672-19.658-1.997-29.296-.752-5.472-5.805-9.302-11.27-8.544-5.472.752-9.297 5.797-8.545 11.269 1.202 8.738 1.812 17.678 1.812 26.571 0 4.847-.183 9.705-.542 14.54l-31.385-15.883c1.922-4.342 2.999-9.139 2.999-14.185 0-4.681-.927-9.147-2.594-13.235-8.176-38.488-26.845-73.346-54.271-101.511 8.335-5.5 16.605-10.419 24.274-14.581 1.968 4.041 4.563 7.81 7.768 11.151 8.134 8.479 15.53 17.742 21.984 27.532 3.039 4.61 9.239 5.884 13.853 2.846 4.611-3.04 5.885-9.242 2.846-13.854-7.12-10.8-15.278-21.018-24.249-30.37-4.993-5.203-7.32-12.289-6.388-19.445zm1.609 210.329h-10v-25.152c3.092-.919 6.006-2.252 8.68-3.935l46.775 23.671 24.534 30.603c-12.995-4.686-26.829-7.186-40.915-7.186-6.393 0-12.773.512-19.073 1.517v-9.517c-.001-5.524-4.478-10.001-10.001-10.001zm-20-74.03c8.363 0 15.167 6.804 15.167 15.167s-6.804 15.167-15.167 15.167-15.167-6.804-15.167-15.167 6.804-15.167 15.167-15.167zm10 94.03v73.265c0 5.514-4.486 10-10 10s-10-4.486-10-10v-73.265zm-48.256-181.913c19.636 19.513 34.509 42.729 43.894 68.341-1.837-.297-3.718-.458-5.638-.458-8.783 0-16.816 3.243-22.986 8.585l-47.272-47.17c8.907-10.36 20.134-20.309 32.002-29.298zm-4.355 179.913c-14.926 0-27.069-12.144-27.069-27.069v-31.786c0-3.67-2.01-7.045-5.236-8.793l-20.557-11.136 21.639-47.144 39.909 39.823c-.804 2.947-1.241 6.044-1.241 9.243 0 15.918 10.633 29.391 25.167 33.71v25.152h-10c-5.522 0-10 4.477-10 10v8zm-64.702 163.5 74.899-102.194c.782-1.067 1.591-2.112 2.414-3.147v17.106c0 16.542 13.458 30 30 30s30-13.458 30-30v-53.443c6.278-1.207 12.667-1.821 19.073-1.821 31.9 0 62.268 15.312 81.233 40.962l75.821 102.538h-313.44zm309.784-42.974-74.758-97.915c12.268-12.217 22.927-25.804 31.796-40.418l96.724 96.723c-15.827 15.954-33.842 29.987-53.762 41.61z"/><path id="XMLID_944_" d="m209.761 205.581c2.63 0 5.21-1.061 7.07-2.931 1.859-1.859 2.93-4.439 2.93-7.069s-1.07-5.21-2.93-7.07-4.441-2.93-7.07-2.93c-2.63 0-5.21 1.069-7.07 2.93-1.859 1.86-2.93 4.44-2.93 7.07s1.07 5.21 2.93 7.069c1.86 1.87 4.44 2.931 7.07 2.931z"/></g></g></svg>