<svg id="Capa_1" enable-background="new 0 0 512 512" height="512" viewBox="0 0 512 512" width="512" xmlns="http://www.w3.org/2000/svg"><g clip-rule="evenodd" fill-rule="evenodd"><path d="m502 90.042c-167.496-48.939-325.045 49.743-492 .334v55.225c166.955 49.409 324.504-49.273 492-.334z" fill="#ff5d7d"/><path d="m502 145.267c-167.496-48.939-325.045 49.743-492 .334v55.225c166.955 49.409 324.504-49.273 492-.334z" fill="#ff764e"/><path d="m502 200.492c-167.496-48.939-325.045 49.743-492 .334v55.225c166.955 49.409 324.504-49.273 492-.334z" fill="#ffc144"/><path d="m502 255.718c-167.496-48.939-325.045 49.743-492 .334v55.225c166.955 49.41 324.504-49.273 492-.334z" fill="#88df8e"/><path d="m502 310.943c-167.496-48.939-325.045 49.743-492 .334v55.225c166.955 49.409 324.504-49.273 492-.334z" fill="#00ccf2"/><path d="m502 366.168c-167.496-48.939-325.045 49.743-492 .334v55.225c166.955 49.409 324.504-49.273 492-.334z" fill="#b278d3"/></g><path d="m512 200.301v-55.178c0-.016 0-.032 0-.047v-55.034c0-4.443-2.931-8.353-7.195-9.599-85.765-25.059-169.36-12.315-250.202.007-32.188 4.906-65.473 9.98-98.166 12.501-5.506.425-9.626 5.233-9.201 10.74.426 5.507 5.236 9.625 10.74 9.202 33.434-2.579 67.092-7.71 99.642-12.671 76.375-11.643 155.275-23.669 234.382-2.59v34.593c-81.283-20.32-160.583-8.257-237.394 3.452-80.028 12.198-155.747 23.734-234.606 2.36v-34.545c14.88 3.775 30.058 6.545 46.046 8.412 5.49.643 10.452-3.286 11.093-8.772s-3.287-10.452-8.772-11.093c-19.46-2.272-37.623-5.953-55.528-11.252-3.029-.896-6.296-.311-8.822 1.577-2.529 1.888-4.017 4.857-4.017 8.012v55.319.074 55.151.074 55.151.074 55.151.074 55.151.074 55.057c0 4.43 2.914 8.332 7.162 9.589 36.275 10.735 72.188 14.642 107.696 14.642 48.402 0 96.044-7.262 142.762-14.384 78.689-11.996 160.06-24.399 241.575-.582 3.018.882 6.282.292 8.803-1.597 2.52-1.889 4.002-4.853 4.002-8.001v-55.369c0-.016 0-.032 0-.047v-55.178c0-.016 0-.032 0-.047v-55.178c0-.016 0-.032 0-.047v-55.178c0-.016 0-.032 0-.048zm-492 68.855c31.915 8.081 63.544 11.126 94.857 11.126 48.403 0 96.045-7.262 142.762-14.384 76.378-11.642 155.277-23.663 234.381-2.586v34.588c-81.284-20.321-160.581-8.257-237.394 3.452-80.025 12.2-155.746 23.737-234.606 2.36zm472-26.481c-81.283-20.32-160.583-8.258-237.395 3.452-80.026 12.2-155.745 23.736-234.605 2.36v-34.557c31.915 8.081 63.545 11.126 94.858 11.126 48.403 0 96.044-7.262 142.762-14.383 76.374-11.642 155.274-23.664 234.38-2.586zm-472 81.706c31.915 8.081 63.545 11.126 94.858 11.126 48.403 0 96.045-7.262 142.762-14.383 76.376-11.644 155.274-23.664 234.38-2.586v34.588c-81.283-20.32-160.583-8.257-237.394 3.451-80.025 12.2-155.746 23.736-234.606 2.361zm94.859-154.549c48.402 0 96.044-7.262 142.762-14.384 76.374-11.642 155.273-23.664 234.38-2.586v34.588c-81.283-20.32-160.583-8.258-237.394 3.451-80.025 12.2-155.746 23.736-234.606 2.36v-34.556c31.914 8.081 63.544 11.127 94.858 11.127zm139.748 241.971c-80.028 12.199-155.749 23.741-234.607 2.366v-34.563c31.915 8.081 63.545 11.126 94.858 11.126 48.403 0 96.044-7.262 142.762-14.383 76.374-11.643 155.274-23.664 234.38-2.586v34.562c-81.286-20.323-160.579-8.233-237.393 3.478z"/><path d="m112.209 114.643c5.522 0 10-4.477 10-10s-4.478-10-10-10h-.007c-5.522 0-9.996 4.477-9.996 10s4.481 10 10.003 10z"/></svg>