<svg id="Layer_5" enable-background="new 0 0 64 64" height="512" viewBox="0 0 64 64" width="512" xmlns="http://www.w3.org/2000/svg"><g><g><g><path d="m62 58.88v.48c0 1.46-1.18 2.64-2.64 2.64-.85 0-1.65-.41-2.15-1.11l-2.32-3.24c-1.19-1.66-3.1-2.65-5.14-2.65h-3.59c-2.5 0-4.74-1.55-5.62-3.9-.46-1.24-1.29-2.26-2.32-2.98-1.04-.71-2.28-1.12-3.6-1.12-1.68 0-3.29.67-4.47 1.85l-1.3 1.3c-1.18 1.18-2.79 1.85-4.47 1.85h-4.13l2.1-3.35c1.08-1.73 1.65-3.73 1.65-5.77 0-3-1.22-5.72-3.19-7.69s-4.69-3.19-7.69-3.19h-.24c-1 0-1.96.13-2.88.39v-.14c0-2.76.89-5.44 2.55-7.65.29-.39.45-.86.45-1.35 0-.62-.25-1.18-.66-1.59s-.97-.66-1.59-.66c-.49 0-.96.16-1.35.45l-2.6 1.95c-.52.39-1.15.6-1.8.6-.83 0-1.58-.34-2.12-.88s-.88-1.29-.88-2.12v-.59c0-.9.4-1.74 1.08-2.31l3.09-2.58c1.13-.94 1.65-2.42 1.36-3.85l-1.49-7.49c-.03-.12-.04-.24-.04-.36 0-1.01.81-1.82 1.82-1.82h.12c.66 0 1.26.35 1.58.92l2.33 4.06c.71 1.25 2.04 2.02 3.47 2.02h1.63c2.24 0 4.05 1.81 4.05 4.05 0 .62-.15 1.24-.43 1.8l-.74 1.5c-.55 1.08-.83 2.28-.83 3.5 0 .59.24 1.13.63 1.52s.93.63 1.52.63h.12c.46 0 .91-.15 1.28-.42 1.66-1.21 6.88-4.58 13.45-4.58 8 0 12 7 12 7h4.16c1.18 0 2.31.47 3.14 1.3l.4.4c.83.83 1.96 1.3 3.14 1.3h1.16c1.1 0 2 .9 2 2 0 .55-.22 1.05-.59 1.41-.36.37-.86.59-1.41.59h-1.65c-1.95 0-3.77 1.25-4.24 3.15-.07.28-.11.56-.11.85 0 1.44 4.17 3.41 6.49 4.39.92.39 1.51 1.29 1.51 2.28 0 .83-.41 1.61-1.1 2.07l-3.36 2.23c-.96.65-1.54 1.72-1.54 2.88 0 .75.24 1.47.69 2.07l4.78 6.38c.34.45.53 1.01.53 1.58z" fill="#4fc1e9"/></g><g><path d="m24 42.88c0 2.04-.57 4.04-1.65 5.77l-2.1 3.35-5.72 9.15c-.33.53-.91.85-1.53.85s-1.2-.32-1.53-.85l-7.82-12.5c-1.08-1.73-1.65-3.73-1.65-5.77 0-5.01 3.39-9.23 8-10.49.92-.26 1.88-.39 2.88-.39h.24c3 0 5.72 1.22 7.69 3.19s3.19 4.69 3.19 7.69z" fill="#ff826e"/></g><g><circle cx="13" cy="43" fill="#ffeaa7" r="7"/></g></g><g><path d="m13 35c-4.411 0-8 3.589-8 8s3.589 8 8 8 8-3.589 8-8-3.589-8-8-8zm0 14c-3.309 0-6-2.691-6-6s2.691-6 6-6 6 2.691 6 6-2.691 6-6 6z"/><path d="m58.093 46.807 3.357-2.238c.97-.646 1.55-1.729 1.55-2.896 0-1.4-.832-2.657-2.119-3.202-4.565-1.932-5.796-3.189-5.881-3.471 0-.188.027-.394.081-.609.346-1.385 1.722-2.391 3.271-2.391h1.648c1.654 0 3-1.346 3-3s-1.346-3-3-3h-1.165c-.917 0-1.778-.356-2.426-1.005l-.404-.404c-1.026-1.027-2.39-1.591-3.84-1.591h-3.614c-1.134-1.695-5.268-7-12.551-7-6.755 0-12.067 3.336-14.036 4.77-.208.151-.447.23-.693.23h-.117c-.636 0-1.154-.518-1.154-1.154 0-1.053.249-2.107.72-3.05l.747-1.494c.349-.698.533-1.478.533-2.257 0-2.782-2.263-5.045-5.045-5.045h-1.634c-1.074 0-2.072-.579-2.605-1.512l-2.324-4.066c-.5-.877-1.438-1.422-2.448-1.422h-.124c-1.555 0-2.82 1.265-2.82 2.819 0 .186.018.372.055.554l1.498 7.489c.216 1.08-.175 2.188-1.021 2.893l-3.092 2.577c-.916.763-1.44 1.883-1.44 3.073v.595c0 2.206 1.794 4 4 4 .859 0 1.711-.284 2.4-.8l2.6-1.95c.216-.161.482-.25.75-.25.689 0 1.25.561 1.25 1.25 0 .269-.088.535-.25.75-1.654 2.205-2.604 4.903-2.726 7.655-4.661 1.606-8.024 6.025-8.024 11.225 0 2.229.625 4.406 1.806 6.296l7.816 12.507c.516.825 1.405 1.317 2.378 1.317s1.862-.492 2.378-1.317l5.426-8.683h3.577c1.956 0 3.794-.762 5.177-2.145l1.297-1.297c1.006-1.004 2.342-1.558 3.764-1.558 2.206 0 4.208 1.388 4.983 3.453 1.02 2.72 3.656 4.547 6.561 4.547h3.584c1.714 0 3.333.833 4.331 2.229l2.319 3.247c.682.955 1.789 1.524 2.962 1.524 2.008 0 3.641-1.633 3.641-3.641v-.479c0-.782-.259-1.558-.729-2.184l-4.781-6.376c-.316-.421-.49-.944-.49-1.471 0-.823.409-1.586 1.093-2.042zm-44.411 13.815c-.295.473-1.068.473-1.363 0l-7.817-12.507c-.982-1.571-1.502-3.382-1.502-5.235 0-5.448 4.432-9.88 9.88-9.88h.24c5.448 0 9.88 4.432 9.88 9.88 0 1.854-.52 3.664-1.502 5.235zm42.209-9.101 4.781 6.375c.211.282.328.631.328.984v.479c0 .905-.736 1.641-1.641 1.641-.529 0-1.028-.257-1.335-.687l-2.319-3.247c-1.372-1.92-3.6-3.066-5.958-3.066h-3.584c-2.076 0-3.959-1.306-4.688-3.249-1.066-2.842-3.822-4.751-6.856-4.751-1.956 0-3.794.762-5.177 2.145l-1.297 1.297c-1.006 1.004-2.342 1.558-3.764 1.558h-2.327l1.14-1.824c1.181-1.89 1.806-4.068 1.806-6.296 0-6.551-5.329-11.88-11.88-11.88h-.24c-.621 0-1.227.062-1.823.155.204-2.146.997-4.228 2.291-5.954.421-.558.652-1.251.652-1.951 0-1.792-1.458-3.25-3.25-3.25-.698 0-1.391.23-1.95.65l-2.6 1.95c-.344.258-.77.4-1.2.4-1.103 0-2-.897-2-2v-.595c0-.595.262-1.155.72-1.536l3.092-2.577c1.41-1.175 2.062-3.022 1.702-4.822l-1.498-7.49c-.011-.052-.016-.106-.016-.161 0-.452.368-.819.82-.819h.124c.293 0 .566.158.712.413l2.324 4.067c.889 1.554 2.552 2.52 4.341 2.52h1.634c1.679 0 3.045 1.366 3.045 3.045 0 .471-.111.941-.322 1.362l-.747 1.494c-.609 1.219-.931 2.582-.931 3.945 0 1.739 1.415 3.154 3.154 3.154h.117c.67 0 1.316-.212 1.868-.612 1.415-1.03 6.52-4.388 12.861-4.388 7.301 0 11.095 6.433 11.133 6.498l.289.502h4.742c.917 0 1.778.356 2.426 1.005l.404.404c1.026 1.026 2.39 1.591 3.84 1.591h1.166c.551 0 1 .448 1 1s-.449 1-1 1h-1.648c-2.494 0-4.636 1.606-5.211 3.906-.094.375-.141.742-.141 1.094 0 .69 0 2.309 7.102 5.313.545.231.898.764.898 1.36 0 .496-.247.956-.659 1.231l-3.357 2.238c-1.243.829-1.984 2.214-1.984 3.707 0 .958.316 1.907.891 2.672z"/><path d="m26.517 22.616.966 1.752c1.959-1.08 5.027-2.368 8.517-2.368.603 0 1.203.065 1.781.195l.438-1.951c-.722-.162-1.469-.244-2.219-.244-3.916 0-7.318 1.423-9.483 2.616z"/><path d="m39.565 22.82c.625.302 1.233.688 1.81 1.149l1.25-1.561c-.693-.556-1.43-1.023-2.19-1.39z"/></g></g></svg>