<svg height="512pt" viewBox="-68 0 512 512" width="512pt" xmlns="http://www.w3.org/2000/svg"><path d="m306.648438 18.945312-92.5 154.023438-6.828126 11.351562-19.113281-31.914062v-.085938l6.824219-11.351562 18.175781-30.035156 19.882813-34.132813 19.96875-34.132812 19.882812-34.132813c12.03125-.035156 23.789063 3.597656 33.707032 10.410156zm0 0" fill="#f44335"/><path d="m329.261719 48.46875v.085938l-101.71875 169.558593-20.222657-33.792969 99.328126-165.375c10.5 7.167969 18.425781 17.515626 22.613281 29.523438zm0 0" fill="#ecf0f1"/><path d="m332.675781 68.265625v7.082031c.011719 23.277344-6.332031 46.113282-18.347656 66.050782l-59.734375 99.242187-6.824219 11.347656-20.226562-33.875 6.828125-11.351562 94.890625-158.207031c2.269531 6.324218 3.425781 12.992187 3.414062 19.710937zm0 0" fill="#f44335"/><path d="m253.058594 42.667969-19.96875 34.132812h-90.027344l-20.394531-34.132812zm0 0" fill="#fff"/><path d="m126.9375 254.121094-117.25 189.613281c-1.664062 2.769531-1.621094 6.246094.113281 8.972656 1.734375 2.730469 4.863281 4.246094 8.078125 3.910157l45.144532-11.433594c7.960937-.835938 15.425781 4 17.917968 11.605468l9.644532 40.789063c1.007812 3.179687 3.785156 5.472656 7.101562 5.859375 3.3125.386719 6.542969-1.207031 8.257812-4.066406l80.042969-144.46875zm0 0" fill="#02a9f4"/><path d="m296.578125 468.90625-10.921875 29.695312c-1.34375 2.84375-4.140625 4.71875-7.28125 4.878907-3.136719.160156-6.109375-1.417969-7.738281-4.109375l-84.648438-144.46875-59.050781-100.78125-66.050781-112.722656c-12.015625-19.9375-18.359375-42.773438-18.34375-66.050782v-7.082031c-.03125-6.347656.980469-12.660156 2.984375-18.6875zm0 0" fill="#f44335"/><path d="m324.484375 446.71875-5.207031-1.535156c-7.292969-.863282-14.328125 3.015625-17.492188 9.644531l-5.207031 14.078125-251.050781-419.328125c2.90625-8.886719 7.875-16.960937 14.507812-23.550781 2.417969-2.417969 5.046875-4.617188 7.851563-6.570313zm0 0" fill="#ecf0f1"/><g fill="#f44335"><path d="m357.25 456.617188-32.765625-9.898438-256.597656-427.261719c10.039062-7.148437 22.066406-10.96875 34.386719-10.921875l40.789062 68.265625 20.398438 34.132813 24.746093 41.386718v.085938l19.113281 31.914062 20.222657 33.792969 20.226562 33.875 117.84375 191.746094c1.628907 2.804687 1.542969 6.289063-.222656 9.011719-1.765625 2.71875-4.914063 4.21875-8.140625 3.871094zm0 0"/><path d="m196.738281 143.871094 17.410157 29.097656-6.828126 11.351562-19.113281-31.914062v-.085938l6.824219-11.351562 1.707031 2.816406zm0 0"/><path d="m254.59375 240.640625-6.824219 11.347656-20.226562-33.875 6.828125-11.351562 1.707031 2.816406zm0 0"/><path d="m272.941406 8.535156-19.882812 34.132813h-130.390625l-20.394531-34.132813zm0 0"/><path d="m233.089844 76.800781-19.882813 34.132813h-49.746093l-20.398438-34.132813zm0 0"/></g><path d="m179.074219 356.777344-6.226563 11.179687-60.078125-100.179687 7.253907-11.777344zm0 0" fill="#0377bc"/><path d="m257.761719 251.9375 63.871093-106.136719c12.8125-21.265625 19.582032-45.625 19.574219-70.453125v-7.082031c.019531-7.488281-1.238281-14.929687-3.710937-21.996094-.042969-.199219-.101563-.390625-.171875-.582031-.050781-.136719-.125-.265625-.175781-.402344l-.113282-.253906c-4.804687-13.453125-13.75-25.035156-25.546875-33.085938-.121093-.074218-.25-.125-.367187-.210937l-.078125-.070313h-.121094c-10.890625-7.355468-23.691406-11.378906-36.835937-11.5781245h-.164063c-.332031-.0195313-.648437-.0859375-.980469-.0859375h-170.667968c-.355469 0-.699219.078125-1.054688.078125h-.199219c-13.386719.195313-26.414062 4.375-37.417969 12.003906h-.109374l-.085938.085938c-.128906.085937-.273438.144531-.402344.230469-3.21875 2.246093-6.230468 4.769531-9 7.542968-7.566406 7.542969-13.246094 16.761719-16.582031 26.90625-.050781.164063-.070313.339844-.121094.511719l-.074219.308594c-2.144531 6.65625-3.230468 13.605469-3.21875 20.597656v7.082031c-.007812 24.792969 6.738282 49.117188 19.515626 70.359375l63.453124 108.296875-114.542968 185.300782c-3.328125 5.542968-3.238282 12.488281.230468 17.945312 3.472657 5.453125 9.722657 8.480469 16.15625 7.816406.386719-.039062.773438-.109375 1.152344-.214844l44.457032-11.253906c3.558593-.261718 6.875 1.808594 8.199218 5.121094l9.855469 41.503906c2.078125 6.394532 7.722656 10.96875 14.40625 11.671875 6.6875.703125 13.160156-2.59375 16.519531-8.417969l72.78125-131.414062 77.140625 131.644531c3.070313 5.140625 8.613281 8.292969 14.601563 8.292969h.851562c6.53125-.386719 12.285156-4.425781 14.867188-10.4375l15.820312-43.066406c1.460938-3.152344 4.699219-5.085938 8.167969-4.882813l37.136719 11.179688c.496094.152343 1.007812.257812 1.527344.316406 6.464843.707031 12.773437-2.308594 16.28125-7.785156 3.511718-5.472657 3.621093-12.464844.28125-18.046875zm49.253906-114.945312-59.222656 98.410156-10.324219-17.257813 86.671875-144.476562v1.707031c0 21.714844-5.921875 43.015625-17.125 61.617188zm-58.890625-102.859376h-120.609375l-10.238281-17.066406h140.800781zm-9.957031 17.066407-9.949219 17.066406h-80.308594l-10.238281-17.066406zm-19.90625 34.132812-9.960938 17.066407h-39.984375l-10.242187-17.066407zm-20.175781 34.132813-9.835938 16.292968-9.738281-16.292968zm22.496093-4.265625 57.0625-97.78125c5.964844.496093 11.796875 2.046875 17.21875 4.582031l-87.542969 145.730469-9.183593-15.359375zm88.269531-83.335938c4.628907 4.574219 8.324219 10.007813 10.871094 16l-92.160156 153.667969-10.308594-17.210938zm-13.835937 417.84375-240.023437-400.929687c2.496093-6.089844 6.140624-11.640625 10.734374-16.351563l243.5 405.472657c-6.019531 2.074218-11.070312 6.273437-14.210937 11.808593zm-196.152344 45.910157-9.839843-41.472657c-3.75-11.441406-14.976563-18.707031-26.949219-17.441406-.398438.039063-.789063.113281-1.175781.210937l-43.855469 11.09375 109.695312-177.339843 49.425781 84.371093zm179.105469-.554688-84.625-144.480469-125.140625-213.589843c-11.1875-18.570313-17.105469-39.835938-17.128906-61.515626l236.125 394.394532zm52.144531-55.527344-250.527343-417.167968c5.660156-2.761719 11.785156-4.441407 18.0625-4.949219l82.835937 138.613281c.125.257812.253906.511719.398437.761719l59.554688 99.566406v.09375l117.640625 191.546875zm0 0"/><path d="m125.304688 344.148438 6.1875 11.058593 5.011718-11.636719 12.429688-2.476562-9.519532-8.363281 1.492188-12.578125-10.898438 6.46875-11.511718-5.296875 2.792968 12.355469-8.601562 9.300781zm0 0"/><path d="m133.984375 366.078125-10.894531 6.480469-11.503906-5.308594 2.789062 12.363281-8.601562 9.300781 12.613281 1.171876 6.195312 11.050781 5.007813-11.640625 12.425781-2.464844-9.523437-8.363281zm0 0"/><path d="m94.613281 391.382812-10.898437 6.464844-11.503906-5.296875 2.792968 12.355469-8.601562 9.308594 12.609375 1.164062 6.195312 11.058594 5.011719-11.640625 12.421875-2.476563-9.523437-8.351562zm0 0"/></svg>